# xmcd
#
# Track frame offsets: 
#        150
#        13257
#        27671
#        39762
#
# Disc length: 683 seconds
#
# Revision: 0
# Processed by: cddbd v1.5.1PL0 Copyright (c) Steve Scherf et al.
# Submitted via: ExactAudioCopy v0.95a5
#
DISCID=2902a904
DTITLE=Lost and Lonesome (George Ireton and Van Atwell) - Lost and Lonesom
DTITLE=e Demo
DYEAR=2000
DGENRE=Bluegrass
TTITLE0=By The Creek (George Ireton)
TTITLE1=Brother Billy (George Ireton
TTITLE2=Water Off The Back Of A Duck (Van Atwell)
TTITLE3=Beautiful Ozark Mountains (Van Atwell)
EXTD=
EXTT0=
EXTT1=
EXTT2=
EXTT3=
PLAYORDER=
